<?xml version="1.0" encoding="utf-8"?>
<!-- Generator: Adobe Illustrator 24.3.0, SVG Export Plug-In . SVG Version: 6.00 Build 0)  -->
<svg version="1.1" id="Слой_1" xmlns="http://www.w3.org/2000/svg" xmlns:xlink="http://www.w3.org/1999/xlink" x="0px" y="0px"
	 viewBox="0 0 595.28 841.89" style="enable-background:new 0 0 595.28 841.89;" xml:space="preserve">
<style type="text/css">
	.st0{fill:none;stroke:#000000;stroke-width:5;stroke-linecap:round;stroke-miterlimit:10;}
	.st1{fill:none;stroke:#000000;stroke-width:3;stroke-miterlimit:10;}
</style>
<g>
	<path class="st0" d="M315.77,406.59c0,0-1.79,14.27-18.13,14.36c-16.34,0.09-18.18-14.36-18.18-14.36"/>
	<path class="st0" d="M279.46,449.01v-74.06c0,0-0.86-17.96,18.18-17.96s18.13,16.36,18.13,16.36"/>
	<line class="st0" x1="315.76" y1="373.34" x2="315.77" y2="406.59"/>
	<line class="st1" x1="199.43" y1="309.36" x2="199.43" y2="482.64"/>
	<line class="st1" x1="198.21" y1="481.11" x2="374.31" y2="481.11"/>
	<line class="st1" x1="198.21" y1="310.51" x2="374.31" y2="310.51"/>
	<line class="st1" x1="372.78" y1="310.51" x2="372.78" y2="482.64"/>
	<line class="st1" x1="219.61" y1="299.2" x2="395.71" y2="299.2"/>
	<line class="st1" x1="218" y1="297.9" x2="219.01" y2="469.18"/>
	<line class="st1" x1="394.18" y1="299.2" x2="394.18" y2="469.18"/>
	<line class="st1" x1="219" y1="467.66" x2="395.71" y2="467.66"/>
</g>
</svg>
